<svg id="Layer_1" data-name="Layer 1" xmlns="http://www.w3.org/2000/svg" xmlns:xlink="http://www.w3.org/1999/xlink" viewBox="0 0 1468 515"><defs><style>.cls-1{opacity:0.1;}.cls-10,.cls-11,.cls-12,.cls-13,.cls-14,.cls-15,.cls-16,.cls-17,.cls-18,.cls-19,.cls-2,.cls-20,.cls-21,.cls-22,.cls-23,.cls-24,.cls-25,.cls-26,.cls-27,.cls-3,.cls-4,.cls-5,.cls-6,.cls-7,.cls-8,.cls-9{fill:none;stroke-miterlimit:10;stroke-width:10px;}.cls-2{stroke:url(#linear-gradient);}.cls-3{stroke:url(#linear-gradient-2);}.cls-4{stroke:url(#linear-gradient-3);}.cls-5{stroke:url(#linear-gradient-4);}.cls-6{stroke:url(#linear-gradient-5);}.cls-7{stroke:url(#linear-gradient-6);}.cls-8{stroke:url(#linear-gradient-7);}.cls-9{stroke:url(#linear-gradient-8);}.cls-10{stroke:url(#linear-gradient-9);}.cls-11{stroke:url(#linear-gradient-10);}.cls-12{stroke:url(#linear-gradient-11);}.cls-13{stroke:url(#linear-gradient-12);}.cls-14{stroke:url(#linear-gradient-13);}.cls-15{stroke:url(#linear-gradient-14);}.cls-16{stroke:url(#linear-gradient-15);}.cls-17{stroke:url(#linear-gradient-16);}.cls-18{stroke:url(#linear-gradient-17);}.cls-19{stroke:url(#linear-gradient-18);}.cls-20{stroke:url(#linear-gradient-19);}.cls-21{stroke:url(#linear-gradient-20);}.cls-22{stroke:url(#linear-gradient-21);}.cls-23{stroke:url(#linear-gradient-22);}.cls-24{stroke:url(#linear-gradient-23);}.cls-25{stroke:url(#linear-gradient-24);}.cls-26{stroke:url(#linear-gradient-25);}.cls-27{stroke:url(#linear-gradient-26);}</style><linearGradient id="linear-gradient" x1="172.17" y1="464.48" x2="155.03" y2="434.8" gradientUnits="userSpaceOnUse"><stop offset="0" stop-color="#fbcd63"/><stop offset="1" stop-color="#ff8c64"/></linearGradient><linearGradient id="linear-gradient-2" x1="799.94" y1="117.4" x2="768.8" y2="63.47" xlink:href="#linear-gradient"/><linearGradient id="linear-gradient-3" x1="1402.52" y1="398.39" x2="1384.45" y2="367.09" xlink:href="#linear-gradient"/><linearGradient id="linear-gradient-4" x1="1193.82" y1="245.89" x2="1175.75" y2="214.59" xlink:href="#linear-gradient"/><linearGradient id="linear-gradient-5" x1="1776.18" y1="773.93" x2="1748.85" y2="726.58" gradientTransform="translate(1212.2 -1312.12) rotate(104.45)" gradientUnits="userSpaceOnUse"><stop offset="0" stop-color="#5a99f6"/><stop offset="1" stop-color="#5ae0ff"/></linearGradient><linearGradient id="linear-gradient-6" x1="2663.42" y1="1344.08" x2="2636.09" y2="1296.74" gradientTransform="translate(3034.71 -1920.03) rotate(104.45)" xlink:href="#linear-gradient-5"/><linearGradient id="linear-gradient-7" x1="-1838.84" y1="416.92" x2="-1888.27" y2="331.3" gradientTransform="translate(1048.12 -1680.7) rotate(-53.11)" xlink:href="#linear-gradient-5"/><linearGradient id="linear-gradient-8" x1="851.93" y1="562.52" x2="829.23" y2="523.2" gradientTransform="translate(-743.43 -179.31)" xlink:href="#linear-gradient-5"/><linearGradient id="linear-gradient-9" x1="1630.75" y1="564.17" x2="1608.05" y2="524.86" gradientTransform="translate(-760.26 -341.96)" xlink:href="#linear-gradient-5"/><linearGradient id="linear-gradient-10" x1="-1772.68" y1="496.81" x2="-1675.82" y2="496.81" gradientTransform="matrix(0.89, -0.45, 0.45, 0.89, 1626.89, -1069.25)" xlink:href="#linear-gradient"/><linearGradient id="linear-gradient-11" x1="-3298.02" y1="2246.48" x2="-3201.15" y2="2246.48" gradientTransform="translate(2408.65 -3136.07) rotate(-26.95)" xlink:href="#linear-gradient"/><linearGradient id="linear-gradient-12" x1="515.86" y1="190.72" x2="673.68" y2="190.72" gradientTransform="translate(574.3 525.42) rotate(-26.95)" xlink:href="#linear-gradient"/><linearGradient id="linear-gradient-13" x1="2170.84" y1="316.53" x2="2358.96" y2="316.53" gradientTransform="translate(-977.97 807.35) rotate(-26.95)" xlink:href="#linear-gradient"/><linearGradient id="linear-gradient-14" x1="-1297.32" y1="368.88" x2="-1225.16" y2="368.88" gradientTransform="translate(1730.02 -600.1) rotate(-26.95)" xlink:href="#linear-gradient"/><linearGradient id="linear-gradient-15" x1="167.3" y1="314.48" x2="136.17" y2="260.57" xlink:href="#linear-gradient"/><linearGradient id="linear-gradient-16" x1="416.08" y1="324.46" x2="371.47" y2="247.21" gradientTransform="matrix(1, 0, 0, 1, 0, 0)" xlink:href="#linear-gradient-5"/><linearGradient id="linear-gradient-17" x1="660.85" y1="241.07" x2="616.24" y2="163.81" gradientTransform="matrix(1, 0, 0, 1, 0, 0)" xlink:href="#linear-gradient-5"/><linearGradient id="linear-gradient-18" x1="1554.82" y1="767.03" x2="1518.85" y2="704.73" gradientTransform="matrix(0.93, -0.37, 0.37, 0.93, -1571.15, 28.67)" xlink:href="#linear-gradient"/><linearGradient id="linear-gradient-19" x1="2307.71" y1="1223.93" x2="2271.74" y2="1161.63" gradientTransform="matrix(0.93, -0.37, 0.37, 0.93, -1571.15, 28.67)" xlink:href="#linear-gradient"/><linearGradient id="linear-gradient-20" x1="2734.75" y1="1195.45" x2="2698.78" y2="1133.15" gradientTransform="matrix(0.93, -0.37, 0.37, 0.93, -1571.15, 28.67)" xlink:href="#linear-gradient-5"/><linearGradient id="linear-gradient-21" x1="2627.94" y1="1341.87" x2="2591.97" y2="1279.57" gradientTransform="matrix(0.93, -0.37, 0.37, 0.93, -1571.15, 28.67)" xlink:href="#linear-gradient-5"/><linearGradient id="linear-gradient-22" x1="4041.73" y1="3481.24" x2="3998.09" y2="3405.66" gradientTransform="matrix(0.39, -0.92, 0.92, 0.39, -3749.56, 2441.69)" xlink:href="#linear-gradient-5"/><linearGradient id="linear-gradient-23" x1="719.35" y1="432.11" x2="666.78" y2="341.06" gradientTransform="matrix(1, -0.05, 0.05, 1, -210.56, -248.19)" xlink:href="#linear-gradient-5"/><linearGradient id="linear-gradient-24" x1="3212.34" y1="2337.8" x2="3135" y2="2203.84" gradientTransform="translate(-2886.04 1213.9) rotate(-47.58)" xlink:href="#linear-gradient-5"/><linearGradient id="linear-gradient-25" x1="243.52" y1="365.67" x2="306.08" y2="365.67" xlink:href="#linear-gradient"/><linearGradient id="linear-gradient-26" x1="707.17" y1="409.71" x2="667.32" y2="340.69" gradientTransform="matrix(1, 0, 0, 1, 0, 0)" xlink:href="#linear-gradient-5"/></defs><title>bg-coloured-small</title><g class="cls-1"><circle class="cls-2" cx="163.6" cy="449.64" r="12.14"/><circle class="cls-3" cx="784.37" cy="90.43" r="26.14"/><circle class="cls-4" cx="1393.49" cy="382.74" r="13.07"/><circle class="cls-5" cx="1184.78" cy="230.24" r="13.07"/><rect class="cls-6" x="28.7" y="190.25" width="34.39" height="34.39" transform="translate(-79.83 378.72) rotate(-131.24)"/><rect class="cls-7" x="1077.7" y="299.25" width="34.39" height="34.39" transform="translate(1578.76 1348.35) rotate(-131.24)"/><rect class="cls-8" x="189.24" y="-5.11" width="78.84" height="78.84" transform="translate(244.68 -196.35) rotate(85.44)"/><rect class="cls-9" x="85.52" y="351.94" width="23.23" height="23.23" transform="translate(-73.77 28.3) rotate(-12.05)"/><rect class="cls-10" x="847.52" y="190.94" width="23.23" height="23.23" transform="translate(-23.36 183.85) rotate(-12.05)"/><rect class="cls-11" x="284.08" y="124.09" width="62.04" height="62.04" transform="translate(291.88 -195.33) rotate(60)"/><rect class="cls-12" x="499.22" y="308.26" width="62.04" height="62.04" transform="translate(950.64 -129.26) rotate(99.29)"/><rect class="cls-13" x="1137.23" y="372.16" width="107.37" height="107.37" transform="translate(489.11 -626.34) rotate(36.62)"/><rect class="cls-14" x="1119.45" y="-2.01" width="129.9" height="129.9" transform="translate(25.68 -190.32) rotate(9.29)"/><rect class="cls-15" x="751.13" y="278.54" width="43.67" height="43.67" transform="translate(646.61 -519.22) rotate(60)"/><circle class="cls-16" cx="151.73" cy="287.53" r="26.12"/><circle class="cls-17" cx="393.78" cy="285.84" r="39.6"/><circle class="cls-18" cx="638.54" cy="202.44" r="39.6"/><polygon class="cls-19" points="107.56 121.59 128.85 99.23 137.57 128.84 146.29 158.45 116.29 151.2 86.28 143.95 107.56 121.59"/><polygon class="cls-20" points="976.56 264.59 997.85 242.23 1006.57 271.84 1015.29 301.45 985.29 294.2 955.28 286.95 976.56 264.59"/><polygon class="cls-21" points="1362.13 78.83 1383.42 56.47 1392.14 86.08 1400.87 115.7 1370.86 108.44 1340.85 101.19 1362.13 78.83"/><polygon class="cls-22" points="1317.67 254.53 1338.95 232.17 1347.68 261.78 1356.4 291.39 1326.39 284.14 1296.39 276.89 1317.67 254.53"/><polygon class="cls-23" points="960.88 99.03 959.91 59.74 994.42 78.55 1028.93 97.35 995.39 117.83 961.85 138.32 960.88 99.03"/><polygon class="cls-24" points="476.18 71.56 519.9 49.2 517.41 98.25 514.92 147.29 473.69 120.61 432.46 93.93 476.18 71.56"/><polygon class="cls-25" points="868.26 389.2 891.73 316.55 942.91 373.2 994.08 429.86 919.43 445.85 844.78 461.84 868.26 389.2"/><polygon class="cls-26" points="257.82 367.15 264.77 344.8 280.65 362 296.53 379.19 273.7 384.35 250.87 389.5 257.82 367.15"/><polygon class="cls-27" points="664.79 389.08 653.48 359.47 684.78 364.48 716.08 369.49 696.09 394.09 676.1 418.69 664.79 389.08"/></g></svg>