<svg id="Layer_1" data-name="Layer 1" xmlns="http://www.w3.org/2000/svg" xmlns:xlink="http://www.w3.org/1999/xlink" viewBox="0 0 1468 869.25"><defs><style>.cls-1{opacity:0.1;}.cls-10,.cls-11,.cls-12,.cls-13,.cls-14,.cls-15,.cls-16,.cls-17,.cls-18,.cls-19,.cls-2,.cls-20,.cls-21,.cls-22,.cls-23,.cls-24,.cls-25,.cls-26,.cls-27,.cls-28,.cls-29,.cls-3,.cls-30,.cls-31,.cls-32,.cls-33,.cls-34,.cls-35,.cls-36,.cls-37,.cls-38,.cls-39,.cls-4,.cls-5,.cls-6,.cls-7,.cls-8,.cls-9{fill:none;stroke-miterlimit:10;stroke-width:10px;}.cls-2{stroke:url(#linear-gradient);}.cls-3{stroke:url(#linear-gradient-2);}.cls-4{stroke:url(#linear-gradient-3);}.cls-5{stroke:url(#linear-gradient-4);}.cls-6{stroke:url(#linear-gradient-5);}.cls-7{stroke:url(#linear-gradient-6);}.cls-8{stroke:url(#linear-gradient-7);}.cls-9{stroke:url(#linear-gradient-8);}.cls-10{stroke:url(#linear-gradient-9);}.cls-11{stroke:url(#linear-gradient-10);}.cls-12{stroke:url(#linear-gradient-11);}.cls-13{stroke:url(#linear-gradient-12);}.cls-14{stroke:url(#linear-gradient-13);}.cls-15{stroke:url(#linear-gradient-14);}.cls-16{stroke:url(#linear-gradient-15);}.cls-17{stroke:url(#linear-gradient-16);}.cls-18{stroke:url(#linear-gradient-17);}.cls-19{stroke:url(#linear-gradient-18);}.cls-20{stroke:url(#linear-gradient-19);}.cls-21{stroke:url(#linear-gradient-20);}.cls-22{stroke:url(#linear-gradient-21);}.cls-23{stroke:url(#linear-gradient-22);}.cls-24{stroke:url(#linear-gradient-23);}.cls-25{stroke:url(#linear-gradient-24);}.cls-26{stroke:url(#linear-gradient-25);}.cls-27{stroke:url(#linear-gradient-26);}.cls-28{stroke:url(#linear-gradient-27);}.cls-29{stroke:url(#linear-gradient-28);}.cls-30{stroke:url(#linear-gradient-29);}.cls-31{stroke:url(#linear-gradient-30);}.cls-32{stroke:url(#linear-gradient-31);}.cls-33{stroke:url(#linear-gradient-32);}.cls-34{stroke:url(#linear-gradient-33);}.cls-35{stroke:url(#linear-gradient-34);}.cls-36{stroke:url(#linear-gradient-35);}.cls-37{stroke:url(#linear-gradient-36);}.cls-38{stroke:url(#linear-gradient-37);}.cls-39{stroke:url(#linear-gradient-38);}</style><linearGradient id="linear-gradient" x1="118.17" y1="787.57" x2="101.03" y2="757.88" gradientUnits="userSpaceOnUse"><stop offset="0" stop-color="#fbcd63"/><stop offset="1" stop-color="#ff8c64"/></linearGradient><linearGradient id="linear-gradient-2" x1="237.97" y1="244.46" x2="206.83" y2="190.52" xlink:href="#linear-gradient"/><linearGradient id="linear-gradient-3" x1="799.94" y1="464.49" x2="768.8" y2="410.55" xlink:href="#linear-gradient"/><linearGradient id="linear-gradient-4" x1="1392.52" y1="745.47" x2="1374.45" y2="714.17" xlink:href="#linear-gradient"/><linearGradient id="linear-gradient-5" x1="1450.52" y1="59.47" x2="1432.45" y2="28.17" xlink:href="#linear-gradient"/><linearGradient id="linear-gradient-6" x1="1193.82" y1="592.98" x2="1175.75" y2="561.68" xlink:href="#linear-gradient"/><linearGradient id="linear-gradient-7" x1="598.26" y1="175.3" x2="580.19" y2="144" xlink:href="#linear-gradient"/><linearGradient id="linear-gradient-8" x1="1864.97" y1="871.44" x2="1837.64" y2="824.1" gradientTransform="translate(1325.79 -1296.68) rotate(104.45)" gradientUnits="userSpaceOnUse"><stop offset="0" stop-color="#5a99f6"/><stop offset="1" stop-color="#5ae0ff"/></linearGradient><linearGradient id="linear-gradient-9" x1="2633.18" y1="1683.97" x2="2605.85" y2="1636.62" gradientTransform="translate(3356.29 -1458.86) rotate(104.45)" xlink:href="#linear-gradient-8"/><linearGradient id="linear-gradient-10" x1="-1802.96" y1="753.6" x2="-1852.39" y2="667.99" gradientTransform="matrix(0.6, -0.8, 0.8, 0.6, 757.3, -1507.03)" xlink:href="#linear-gradient-8"/><linearGradient id="linear-gradient-11" x1="808.58" y1="901.86" x2="785.88" y2="862.55" gradientTransform="translate(-730.09 -171.56)" xlink:href="#linear-gradient-8"/><linearGradient id="linear-gradient-12" x1="1616.74" y1="909.78" x2="1594.04" y2="870.46" gradientTransform="translate(-746.25 -340.48)" xlink:href="#linear-gradient-8"/><linearGradient id="linear-gradient-13" x1="-1736.1" y1="833.04" x2="-1639.23" y2="833.04" gradientTransform="matrix(0.89, -0.45, 0.45, 0.89, 1441.88, -1005.29)" xlink:href="#linear-gradient"/><linearGradient id="linear-gradient-14" x1="-1011.68" y1="3.63" x2="-914.81" y2="3.63" gradientTransform="translate(2231.6 -237.8) rotate(-26.95)" xlink:href="#linear-gradient"/><linearGradient id="linear-gradient-15" x1="-3234.1" y1="2546.83" x2="-3137.23" y2="2546.83" gradientTransform="translate(2215.54 -3027.74) rotate(-26.95)" xlink:href="#linear-gradient"/><linearGradient id="linear-gradient-16" x1="-77.21" y1="169.12" x2="80.61" y2="169.12" gradientTransform="translate(578.74 158.95) rotate(-26.95)" xlink:href="#linear-gradient"/><linearGradient id="linear-gradient-17" x1="527.13" y1="536.85" x2="684.95" y2="536.85" gradientTransform="translate(407.37 569.08) rotate(-26.95)" xlink:href="#linear-gradient"/><linearGradient id="linear-gradient-18" x1="2150.49" y1="660.46" x2="2338.6" y2="660.46" gradientTransform="translate(-1115.7 838.65) rotate(-26.95)" xlink:href="#linear-gradient"/><linearGradient id="linear-gradient-19" x1="-2124.31" y1="646.94" x2="-2052.15" y2="646.94" gradientTransform="translate(1649.01 -1395.4) rotate(-26.95)" xlink:href="#linear-gradient"/><linearGradient id="linear-gradient-20" x1="-1260.74" y1="705.11" x2="-1188.58" y2="705.11" gradientTransform="translate(1545.01 -536.14) rotate(-26.95)" xlink:href="#linear-gradient"/><linearGradient id="linear-gradient-21" x1="-1782.11" y1="526.44" x2="-1685.25" y2="526.44" gradientTransform="matrix(0.89, -0.45, 0.45, 0.89, 1750.5, -1034.94)" xlink:href="#linear-gradient-8"/><linearGradient id="linear-gradient-22" x1="137.3" y1="661.57" x2="106.17" y2="607.66" xlink:href="#linear-gradient"/><linearGradient id="linear-gradient-23" x1="416.08" y1="671.55" x2="371.47" y2="594.3" gradientTransform="matrix(1, 0, 0, 1, 0, 0)" xlink:href="#linear-gradient-8"/><linearGradient id="linear-gradient-24" x1="660.85" y1="588.15" x2="616.24" y2="510.9" gradientTransform="matrix(1, 0, 0, 1, 0, 0)" xlink:href="#linear-gradient-8"/><linearGradient id="linear-gradient-25" x1="1204.22" y1="201.67" x2="1116.85" y2="50.34" gradientTransform="matrix(1, 0, 0, 1, 0, 0)" xlink:href="#linear-gradient-8"/><linearGradient id="linear-gradient-26" x1="347.1" y1="123.43" x2="290.49" y2="25.38" xlink:href="#linear-gradient"/><linearGradient id="linear-gradient-27" x1="915.4" y1="95.29" x2="858.79" y2="-2.76" xlink:href="#linear-gradient"/><linearGradient id="linear-gradient-28" x1="1529.79" y1="1109.27" x2="1493.82" y2="1046.97" gradientTransform="matrix(0.93, -0.37, 0.37, 0.93, -1675.62, 48.89)" xlink:href="#linear-gradient"/><linearGradient id="linear-gradient-29" x1="2282.68" y1="1566.17" x2="2246.71" y2="1503.87" gradientTransform="matrix(0.93, -0.37, 0.37, 0.93, -1675.62, 48.89)" xlink:href="#linear-gradient"/><linearGradient id="linear-gradient-30" x1="2700.44" y1="1533.96" x2="2664.47" y2="1471.66" gradientTransform="matrix(0.93, -0.37, 0.37, 0.93, -1675.62, 48.89)" xlink:href="#linear-gradient-8"/><linearGradient id="linear-gradient-31" x1="2185.77" y1="920.32" x2="2149.8" y2="858.01" gradientTransform="matrix(0.93, -0.37, 0.37, 0.93, -1675.62, 48.89)" xlink:href="#linear-gradient-8"/><linearGradient id="linear-gradient-32" x1="2602.91" y1="1684.11" x2="2566.94" y2="1621.81" gradientTransform="matrix(0.93, -0.37, 0.37, 0.93, -1675.62, 48.89)" xlink:href="#linear-gradient-8"/><linearGradient id="linear-gradient-33" x1="3980.02" y1="3787.55" x2="3936.38" y2="3711.97" gradientTransform="matrix(0.39, -0.92, 0.92, 0.39, -4007.13, 2611.86)" xlink:href="#linear-gradient-8"/><linearGradient id="linear-gradient-34" x1="716.32" y1="779.13" x2="663.75" y2="688.08" gradientTransform="matrix(1, -0.05, 0.05, 1, -223.18, -247.91)" xlink:href="#linear-gradient-8"/><linearGradient id="linear-gradient-35" x1="3514.39" y1="2322.88" x2="3437.04" y2="2188.92" gradientTransform="translate(-3092.76 1305.04) rotate(-47.58)" xlink:href="#linear-gradient-8"/><linearGradient id="linear-gradient-36" x1="3162.81" y1="2663.05" x2="3085.47" y2="2529.09" gradientTransform="translate(-3092.76 1305.04) rotate(-47.58)" xlink:href="#linear-gradient-8"/><linearGradient id="linear-gradient-37" x1="213.52" y1="712.75" x2="276.08" y2="712.75" xlink:href="#linear-gradient"/><linearGradient id="linear-gradient-38" x1="707.17" y1="756.8" x2="667.32" y2="687.78" gradientTransform="matrix(1, 0, 0, 1, 0, 0)" xlink:href="#linear-gradient-8"/></defs><title>bg-coloured-large</title><g class="cls-1"><circle class="cls-2" cx="109.6" cy="772.72" r="12.14"/><circle class="cls-3" cx="222.4" cy="217.49" r="26.14"/><circle class="cls-4" cx="784.37" cy="437.52" r="26.14"/><circle class="cls-5" cx="1383.49" cy="729.82" r="13.07"/><circle class="cls-6" cx="1441.49" cy="43.82" r="13.07"/><circle class="cls-7" cx="1184.78" cy="577.33" r="13.07"/><circle class="cls-8" cx="589.23" cy="159.65" r="13.07"/><rect class="cls-9" x="25.7" y="267.34" width="34.39" height="34.39" transform="translate(-142.77 504.37) rotate(-131.24)"/><rect class="cls-10" x="1077.7" y="646.34" width="34.39" height="34.39" transform="matrix(-0.66, -0.75, 0.75, -0.66, 1317.78, 1924.25)"/><rect class="cls-11" x="189.24" y="341.97" width="78.84" height="78.84" transform="translate(590.66 123.13) rotate(85.44)"/><rect class="cls-12" x="55.52" y="699.02" width="23.23" height="23.23" transform="translate(-146.9 29.68) rotate(-12.05)"/><rect class="cls-13" x="847.52" y="538.02" width="23.23" height="23.23" transform="translate(-95.83 191.51) rotate(-12.05)"/><rect class="cls-14" x="284.08" y="471.18" width="62.04" height="62.04" transform="translate(592.46 -21.79) rotate(60)"/><rect class="cls-15" x="1343.61" y="171" width="62.04" height="62.04" transform="translate(862.27 -1089.45) rotate(60)"/><rect class="cls-16" x="499.22" y="655.34" width="62.04" height="62.04" transform="translate(1293.18 273.84) rotate(99.29)"/><rect class="cls-17" x="603.23" y="255.25" width="107.37" height="107.37" transform="translate(313.96 -330.88) rotate(36.62)"/><rect class="cls-18" x="1137.23" y="719.25" width="107.37" height="107.37" transform="translate(696.15 -557.82) rotate(36.62)"/><rect class="cls-19" x="1119.45" y="345.08" width="129.9" height="129.9" transform="translate(81.7 -185.77) rotate(9.29)"/><rect class="cls-20" x="58.99" y="105.93" width="43.67" height="43.67" transform="translate(151.06 -6.11) rotate(60)"/><rect class="cls-21" x="751.13" y="625.63" width="43.67" height="43.67" transform="translate(947.2 -345.67) rotate(60)"/><rect class="cls-22" x="412.71" y="189.09" width="62.04" height="62.04" transform="translate(412.48 -274.23) rotate(60)"/><circle class="cls-23" cx="121.73" cy="634.61" r="26.12"/><circle class="cls-24" cx="393.78" cy="632.92" r="39.6"/><circle class="cls-25" cx="638.54" cy="549.52" r="39.6"/><circle class="cls-26" cx="1160.53" cy="126" r="82.36"/><circle class="cls-27" cx="318.8" cy="74.4" r="51.6"/><circle class="cls-28" cx="887.1" cy="46.27" r="51.6"/><polygon class="cls-29" points="107.56 468.67 128.85 446.31 137.57 475.93 146.29 505.54 116.29 498.29 86.28 491.04 107.56 468.67"/><polygon class="cls-30" points="976.56 611.67 997.85 589.31 1006.57 618.93 1015.29 648.54 985.29 641.29 955.28 634.04 976.56 611.67"/><polygon class="cls-31" points="1352.13 425.92 1373.42 403.56 1382.14 433.17 1390.87 462.78 1360.86 455.53 1330.85 448.28 1352.13 425.92"/><polygon class="cls-32" points="645.67 48.61 666.96 26.25 675.68 55.87 684.4 85.48 654.39 78.23 624.39 70.97 645.67 48.61"/><polygon class="cls-33" points="1317.67 601.61 1338.95 579.25 1347.68 608.87 1356.4 638.48 1326.39 631.23 1296.39 623.98 1317.67 601.61"/><polygon class="cls-34" points="960.88 446.12 959.91 406.83 994.42 425.63 1028.93 444.44 995.39 464.92 961.85 485.4 960.88 446.12"/><polygon class="cls-35" points="476.18 418.65 519.9 396.28 517.41 445.33 514.92 494.38 473.69 467.7 432.46 441.02 476.18 418.65"/><polygon class="cls-36" points="854.26 247.28 877.73 174.64 928.91 231.29 980.08 287.94 905.43 303.93 830.78 319.93 854.26 247.28"/><polygon class="cls-37" points="868.26 736.28 891.73 663.64 942.91 720.29 994.08 776.94 919.43 792.93 844.78 808.92 868.26 736.28"/><polygon class="cls-38" points="227.82 714.24 234.77 691.89 250.65 709.08 266.53 726.28 243.7 731.43 220.87 736.59 227.82 714.24"/><polygon class="cls-39" points="664.79 736.16 653.48 706.55 684.78 711.57 716.08 716.58 696.09 741.18 676.1 765.77 664.79 736.16"/></g></svg>