<svg id="Layer_1" data-name="Layer 1" xmlns="http://www.w3.org/2000/svg" xmlns:xlink="http://www.w3.org/1999/xlink" viewBox="0 0 1320 420"><defs><style>.cls-1{opacity:0.1;}.cls-10,.cls-11,.cls-12,.cls-13,.cls-14,.cls-15,.cls-16,.cls-17,.cls-18,.cls-19,.cls-2,.cls-20,.cls-21,.cls-22,.cls-23,.cls-24,.cls-3,.cls-4,.cls-5,.cls-6,.cls-7,.cls-8,.cls-9{fill:none;stroke-miterlimit:10;stroke-width:10px;}.cls-2{stroke:url(#linear-gradient);}.cls-3{stroke:url(#linear-gradient-2);}.cls-4{stroke:url(#linear-gradient-3);}.cls-5{stroke:url(#linear-gradient-4);}.cls-6{stroke:url(#linear-gradient-5);}.cls-7{stroke:url(#linear-gradient-6);}.cls-8{stroke:url(#linear-gradient-7);}.cls-9{stroke:url(#linear-gradient-8);}.cls-10{stroke:url(#linear-gradient-9);}.cls-11{stroke:url(#linear-gradient-10);}.cls-12{stroke:url(#linear-gradient-11);}.cls-13{stroke:url(#linear-gradient-12);}.cls-14{stroke:url(#linear-gradient-13);}.cls-15{stroke:url(#linear-gradient-14);}.cls-16{stroke:url(#linear-gradient-15);}.cls-17{stroke:url(#linear-gradient-16);}.cls-18{stroke:url(#linear-gradient-17);}.cls-19{stroke:url(#linear-gradient-18);}.cls-20{stroke:url(#linear-gradient-19);}.cls-21{stroke:url(#linear-gradient-20);}.cls-22{stroke:url(#linear-gradient-21);}.cls-23{stroke:url(#linear-gradient-22);}.cls-24{stroke:url(#linear-gradient-23);}</style><linearGradient id="linear-gradient" x1="840.91" y1="-4871.69" x2="823.77" y2="-4901.37" gradientTransform="matrix(1, 0, 0, -1, 0, -4832.63)" gradientUnits="userSpaceOnUse"><stop offset="0" stop-color="#fbcd63"/><stop offset="1" stop-color="#ff8c64"/></linearGradient><linearGradient id="linear-gradient-2" x1="714.78" y1="-5182.63" x2="683.64" y2="-5236.57" xlink:href="#linear-gradient"/><linearGradient id="linear-gradient-3" x1="1307.36" y1="-4901.65" x2="1289.29" y2="-4932.94" xlink:href="#linear-gradient"/><linearGradient id="linear-gradient-4" x1="1108.65" y1="-5054.14" x2="1090.58" y2="-5085.44" xlink:href="#linear-gradient"/><linearGradient id="linear-gradient-5" x1="4279.03" y1="-3603.99" x2="4251.7" y2="-3651.34" gradientTransform="matrix(-0.25, -0.97, -0.97, 0.25, -2128.81, 5070.06)" gradientUnits="userSpaceOnUse"><stop offset="0" stop-color="#5a99f6"/><stop offset="1" stop-color="#5ae0ff"/></linearGradient><linearGradient id="linear-gradient-6" x1="4934.6" y1="-3371.69" x2="4907.27" y2="-3419.04" gradientTransform="matrix(-0.25, -0.97, -0.97, 0.25, -1050.38, 5735.09)" xlink:href="#linear-gradient-5"/><linearGradient id="linear-gradient-7" x1="2956.37" y1="-4390.8" x2="2933.67" y2="-4430.11" gradientTransform="matrix(1, 0, 0, -1, -1815.9, -4306.61)" xlink:href="#linear-gradient-5"/><linearGradient id="linear-gradient-8" x1="2642.67" y1="-4622.4" x2="2619.97" y2="-4661.72" gradientTransform="matrix(1, 0, 0, -1, -1857.34, -4377.21)" xlink:href="#linear-gradient-5"/><linearGradient id="linear-gradient-9" x1="-4720.71" y1="-3947.29" x2="-4623.84" y2="-3947.29" gradientTransform="matrix(0.89, 0.45, 0.45, -0.89, 6183.83, -1088.55)" xlink:href="#linear-gradient"/><linearGradient id="linear-gradient-10" x1="-8380.74" y1="616.07" x2="-8283.87" y2="616.07" gradientTransform="matrix(0.89, 0.45, 0.45, -0.89, 7593.13, 4453.88)" xlink:href="#linear-gradient"/><linearGradient id="linear-gradient-11" x1="-4245.35" y1="-4075.21" x2="-4173.19" y2="-4075.21" gradientTransform="matrix(0.89, 0.45, 0.45, -0.89, 6286.96, -1557.7)" xlink:href="#linear-gradient"/><linearGradient id="linear-gradient-12" x1="52.13" y1="-4985.55" x2="21.01" y2="-5039.46" xlink:href="#linear-gradient"/><linearGradient id="linear-gradient-13" x1="330.91" y1="-4975.57" x2="286.31" y2="-5052.82" gradientTransform="matrix(1, 0, 0, -1, 0, -4832.63)" xlink:href="#linear-gradient-5"/><linearGradient id="linear-gradient-14" x1="575.68" y1="-5058.97" x2="531.08" y2="-5136.22" gradientTransform="matrix(1, 0, 0, -1, 0, -4832.63)" xlink:href="#linear-gradient-5"/><linearGradient id="linear-gradient-15" x1="3430.41" y1="-4157.83" x2="3394.44" y2="-4220.14" gradientTransform="matrix(0.93, 0.37, 0.37, -0.93, -1558.95, -4830.29)" xlink:href="#linear-gradient"/><linearGradient id="linear-gradient-16" x1="4596.99" y1="-3683.97" x2="4561.02" y2="-3746.27" gradientTransform="matrix(0.93, 0.37, 0.37, -0.93, -1558.95, -4830.29)" xlink:href="#linear-gradient"/><linearGradient id="linear-gradient-17" x1="4183.31" y1="-3700.93" x2="4147.34" y2="-3763.23" gradientTransform="matrix(0.93, 0.37, 0.37, -0.93, -1558.95, -4830.29)" xlink:href="#linear-gradient"/><linearGradient id="linear-gradient-18" x1="4476.59" y1="-3778.59" x2="4440.62" y2="-3840.89" gradientTransform="matrix(0.93, 0.37, 0.37, -0.93, -1558.95, -4830.29)" xlink:href="#linear-gradient-5"/><linearGradient id="linear-gradient-19" x1="4503.54" y1="-3582.99" x2="4467.57" y2="-3645.3" gradientTransform="matrix(0.93, 0.37, 0.37, -0.93, -1558.95, -4830.29)" xlink:href="#linear-gradient-5"/><linearGradient id="linear-gradient-20" x1="8798.27" y1="1414.91" x2="8754.63" y2="1339.33" gradientTransform="matrix(0.39, 0.92, 0.92, -0.39, -3751.31, -7177.68)" xlink:href="#linear-gradient-5"/><linearGradient id="linear-gradient-21" x1="871.07" y1="-4863.08" x2="818.5" y2="-4954.13" gradientTransform="matrix(1, 0.05, 0.05, -1, -208.51, -4581.05)" xlink:href="#linear-gradient-5"/><linearGradient id="linear-gradient-22" x1="128.36" y1="-4934.36" x2="190.91" y2="-4934.36" xlink:href="#linear-gradient"/><linearGradient id="linear-gradient-23" x1="622" y1="-4890.32" x2="582.15" y2="-4959.34" gradientTransform="matrix(1, 0, 0, -1, 0, -4832.63)" xlink:href="#linear-gradient-5"/></defs><title>bg-footer</title><g class="cls-1"><circle class="cls-2" cx="832.34" cy="53.9" r="12.14"/><circle class="cls-3" cx="699.21" cy="376.97" r="26.14"/><circle class="cls-4" cx="1298.32" cy="84.66" r="13.07"/><circle class="cls-5" cx="1099.62" cy="237.16" r="13.07"/><rect class="cls-6" x="302.64" y="17.25" width="34.39" height="34.39" transform="translate(556.58 -183.34) rotate(131.24)"/><rect class="cls-7" x="992.54" y="105.4" width="34.39" height="34.39" transform="translate(1767.58 -555.83) rotate(131.24)"/><rect class="cls-8" x="1117.5" y="92.23" width="23.23" height="23.23" transform="translate(46.57 -233.47) rotate(12.05)"/><rect class="cls-9" x="762.36" y="253.23" width="23.23" height="23.23" transform="translate(72.36 -155.77) rotate(12.05)"/><rect class="cls-10" x="198.92" y="281.27" width="62.04" height="62.04" transform="translate(-155.48 355.28) rotate(-60)"/><rect class="cls-11" x="414.05" y="97.1" width="62.04" height="62.04" transform="translate(390.46 588.04) rotate(-99.29)"/><rect class="cls-12" x="665.96" y="145.19" width="43.67" height="43.67" transform="translate(199.25 679.16) rotate(-60)"/><circle class="cls-13" cx="36.57" cy="179.88" r="26.12"/><circle class="cls-14" cx="308.61" cy="181.56" r="39.6"/><circle class="cls-15" cx="553.38" cy="264.96" r="39.6"/><polygon class="cls-16" points="22.4 345.81 43.68 368.17 52.41 338.56 61.13 308.95 31.12 316.2 1.11 323.45 22.4 345.81"/><polygon class="cls-17" points="1281.54 341.42 1302.82 363.78 1311.55 334.17 1320.27 304.56 1290.26 311.81 1260.25 319.06 1281.54 341.42"/><polygon class="cls-18" points="891.4 202.81 912.68 225.17 921.41 195.56 930.13 165.95 900.12 173.2 870.12 180.45 891.4 202.81"/><polygon class="cls-19" points="1134.53 384.29 1155.81 406.65 1164.54 377.04 1173.26 347.43 1143.25 354.68 1113.25 361.93 1134.53 384.29"/><polygon class="cls-20" points="1232.51 212.87 1253.79 235.24 1262.52 205.62 1271.24 176.01 1241.23 183.26 1211.22 190.51 1232.51 212.87"/><polygon class="cls-21" points="923.98 350.83 923.01 390.12 957.52 371.31 992.03 352.51 958.49 332.03 924.95 311.54 923.98 350.83"/><polygon class="cls-22" points="391.01 395.84 434.74 418.2 432.25 369.15 429.75 320.11 388.52 346.79 347.29 373.47 391.01 395.84"/><polygon class="cls-23" points="142.65 100.25 149.61 122.6 165.48 105.4 181.36 88.21 158.53 83.06 135.7 77.9 142.65 100.25"/><polygon class="cls-24" points="579.63 78.32 568.32 107.93 599.62 102.92 630.91 97.91 610.92 73.31 590.93 48.71 579.63 78.32"/></g></svg>