<svg id="Layer_1" data-name="Layer 1" xmlns="http://www.w3.org/2000/svg" xmlns:xlink="http://www.w3.org/1999/xlink" viewBox="0 0 1468 1074"><defs><style>.cls-1{opacity:0.5;}.cls-2{fill:url(#linear-gradient);}.cls-3,.cls-4{fill:none;stroke:#fff;stroke-miterlimit:10;}.cls-3{stroke-width:10px;}.cls-4{stroke-width:6px;}</style><linearGradient id="linear-gradient" x1="734" x2="734" y2="1068.48" gradientUnits="userSpaceOnUse"><stop offset="0" stop-color="#fbcd63"/><stop offset="0.03" stop-color="#fbcd63" stop-opacity="0.94"/><stop offset="0.19" stop-color="#fbcd63" stop-opacity="0.7"/><stop offset="0.34" stop-color="#fbcd63" stop-opacity="0.48"/><stop offset="0.49" stop-color="#fbcd63" stop-opacity="0.31"/><stop offset="0.64" stop-color="#fbcd63" stop-opacity="0.17"/><stop offset="0.77" stop-color="#fbcd63" stop-opacity="0.08"/><stop offset="0.9" stop-color="#fbcd63" stop-opacity="0.02"/><stop offset="1" stop-color="#fbcd63" stop-opacity="0"/></linearGradient></defs><title>bg-yellow-gradient</title><g class="cls-1"><rect class="cls-2" width="1468" height="1068.48"/></g><g class="cls-1"><circle class="cls-3" cx="109.6" cy="772.72" r="12.14"/><circle class="cls-4" cx="222.4" cy="217.49" r="26.14"/><circle class="cls-3" cx="784.37" cy="437.52" r="26.14"/><circle class="cls-3" cx="1383.49" cy="729.82" r="13.07"/><circle class="cls-4" cx="1184.78" cy="577.33" r="13.07"/><circle class="cls-4" cx="589.23" cy="159.65" r="13.07"/><rect class="cls-3" x="127.7" y="700.34" width="34.39" height="34.39" transform="translate(-299.11 1299.52) rotate(-131.24)"/><rect class="cls-4" x="1077.7" y="646.34" width="34.39" height="34.39" transform="translate(1317.78 1924.25) rotate(-131.24)"/><rect class="cls-3" x="189.24" y="341.97" width="78.84" height="78.84" transform="translate(590.66 123.13) rotate(85.44)"/><rect class="cls-3" x="55.52" y="699.02" width="23.23" height="23.23" transform="translate(-146.9 29.68) rotate(-12.05)"/><rect class="cls-4" x="847.52" y="538.02" width="23.23" height="23.23" transform="translate(-95.83 191.51) rotate(-12.05)"/><rect class="cls-3" x="284.08" y="471.18" width="62.04" height="62.04" transform="translate(592.46 -21.79) rotate(60)"/><rect class="cls-3" x="1343.61" y="171" width="62.04" height="62.04" transform="translate(862.27 -1089.45) rotate(60)"/><rect class="cls-3" x="499.22" y="655.34" width="62.04" height="62.04" transform="translate(1293.18 273.84) rotate(99.29)"/><rect class="cls-3" x="603.23" y="255.25" width="107.37" height="107.37" transform="translate(313.96 -330.88) rotate(36.62)"/><rect class="cls-3" x="1137.23" y="719.25" width="107.37" height="107.37" transform="translate(696.15 -557.82) rotate(36.62)"/><rect class="cls-3" x="1119.45" y="345.08" width="129.9" height="129.9" transform="translate(81.7 -185.77) rotate(9.29)"/><rect class="cls-4" x="58.99" y="105.93" width="43.67" height="43.67" transform="translate(151.06 -6.11) rotate(60)"/><rect class="cls-4" x="751.13" y="625.63" width="43.67" height="43.67" transform="translate(947.2 -345.67) rotate(60)"/><rect class="cls-3" x="412.71" y="189.09" width="62.04" height="62.04" transform="translate(412.48 -274.23) rotate(60)"/><circle class="cls-4" cx="121.73" cy="634.61" r="26.12"/><circle class="cls-3" cx="393.78" cy="632.92" r="39.6"/><circle class="cls-3" cx="638.54" cy="549.52" r="39.6"/><circle class="cls-3" cx="1160.53" cy="126" r="82.36"/><circle class="cls-3" cx="318.8" cy="74.4" r="51.6"/><circle class="cls-3" cx="887.1" cy="46.27" r="51.6"/><polygon class="cls-4" points="107.56 468.67 128.85 446.31 137.57 475.93 146.29 505.54 116.29 498.29 86.28 491.04 107.56 468.67"/><polygon class="cls-3" points="976.56 611.67 997.85 589.31 1006.57 618.93 1015.29 648.54 985.29 641.29 955.28 634.04 976.56 611.67"/><polygon class="cls-3" points="1352.13 425.92 1373.42 403.56 1382.14 433.17 1390.87 462.78 1360.86 455.53 1330.85 448.28 1352.13 425.92"/><polygon class="cls-3" points="645.67 48.61 666.96 26.25 675.68 55.87 684.4 85.48 654.39 78.23 624.39 70.97 645.67 48.61"/><polygon class="cls-3" points="1317.67 601.61 1338.95 579.25 1347.68 608.87 1356.4 638.48 1326.39 631.23 1296.39 623.98 1317.67 601.61"/><polygon class="cls-3" points="960.88 446.12 959.91 406.83 994.42 425.63 1028.93 444.44 995.39 464.92 961.85 485.4 960.88 446.12"/><polygon class="cls-3" points="476.18 418.65 519.9 396.28 517.41 445.33 514.92 494.38 473.69 467.7 432.46 441.02 476.18 418.65"/><polygon class="cls-3" points="854.26 247.28 877.73 174.64 928.91 231.29 980.08 287.94 905.43 303.93 830.78 319.93 854.26 247.28"/><polygon class="cls-3" points="868.26 736.28 891.73 663.64 942.91 720.29 994.08 776.94 919.43 792.93 844.78 808.92 868.26 736.28"/><polygon class="cls-3" points="227.82 714.24 234.77 691.89 250.65 709.08 266.53 726.28 243.7 731.43 220.87 736.59 227.82 714.24"/><polygon class="cls-3" points="664.79 736.16 653.48 706.55 684.78 711.57 716.08 716.58 696.09 741.18 676.1 765.77 664.79 736.16"/></g></svg>