<svg xmlns="http://www.w3.org/2000/svg" xmlns:xlink="http://www.w3.org/1999/xlink" viewBox="0 0 712.11 652.7"><defs><style>.cls-1,.cls-16{fill:#fbcd63;}.cls-2{fill:#ff8c64;}.cls-3,.cls-4,.cls-8,.cls-9{fill:none;}.cls-10,.cls-12,.cls-14,.cls-3,.cls-4{stroke:#f2667a;}.cls-10,.cls-11,.cls-12,.cls-13,.cls-14,.cls-15,.cls-16,.cls-3,.cls-4,.cls-8,.cls-9{stroke-linecap:round;}.cls-3,.cls-4,.cls-9{stroke-miterlimit:10;}.cls-3{stroke-width:21.25px;}.cls-4{stroke-width:15.15px;}.cls-5{opacity:0.65;}.cls-6{fill:url(#linear-gradient);}.cls-7{fill:url(#linear-gradient-2);}.cls-16,.cls-8{stroke:#ff8c64;}.cls-10,.cls-11,.cls-12,.cls-13,.cls-14,.cls-15,.cls-16,.cls-8{stroke-linejoin:round;}.cls-8{stroke-width:18.46px;}.cls-9{stroke:#fff5e6;}.cls-16,.cls-9{stroke-width:16px;}.cls-10,.cls-11,.cls-12,.cls-13,.cls-14,.cls-15{fill:#ffc2d1;}.cls-10{stroke-width:9.28px;}.cls-11,.cls-13,.cls-15{stroke:#ffebf7;}.cls-11{stroke-width:7.87px;}.cls-12{stroke-width:5.01px;}.cls-13{stroke-width:4.25px;}.cls-14{stroke-width:3.28px;}.cls-15{stroke-width:2.78px;}</style><linearGradient id="linear-gradient" x1="6993.69" y1="284.85" x2="7253.66" y2="544.82" gradientTransform="matrix(-1, 0, 0, 1, 7562.31, 0)" gradientUnits="userSpaceOnUse"><stop offset="0" stop-color="#fbcd63" stop-opacity="0"/><stop offset="0.12" stop-color="#fcbe63" stop-opacity="0.23"/><stop offset="0.25" stop-color="#fdb163" stop-opacity="0.43"/><stop offset="0.37" stop-color="#fda664" stop-opacity="0.61"/><stop offset="0.5" stop-color="#fe9c64" stop-opacity="0.75"/><stop offset="0.62" stop-color="#fe9564" stop-opacity="0.86"/><stop offset="0.75" stop-color="#ff9064" stop-opacity="0.94"/><stop offset="0.87" stop-color="#ff8d64" stop-opacity="0.98"/><stop offset="1" stop-color="#ff8c64"/></linearGradient><linearGradient id="linear-gradient-2" x1="7127.01" y1="485.78" x2="7293.46" y2="197.48" gradientTransform="matrix(-1, 0, 0, 1, 7562.31, 0)" gradientUnits="userSpaceOnUse"><stop offset="0" stop-color="#fbcd63" stop-opacity="0"/><stop offset="0.18" stop-color="#fbcd64" stop-opacity="0.01"/><stop offset="0.3" stop-color="#fbce67" stop-opacity="0.05"/><stop offset="0.38" stop-color="#fbcf69" stop-opacity="0.07"/><stop offset="0.47" stop-color="#fbd06e" stop-opacity="0.12"/><stop offset="0.56" stop-color="#fcd276" stop-opacity="0.21"/><stop offset="0.66" stop-color="#fcd682" stop-opacity="0.34"/><stop offset="0.76" stop-color="#fdda91" stop-opacity="0.5"/><stop offset="0.87" stop-color="#fee0a4" stop-opacity="0.7"/><stop offset="0.97" stop-color="#ffe6b9" stop-opacity="0.93"/><stop offset="1" stop-color="#ffe8c0"/></linearGradient></defs><title>hug</title><g id="Layer_2" data-name="Layer 2"><g id="Layer_1-2" data-name="Layer 1"><path class="cls-1" d="M354.07,519.87a317.51,317.51,0,0,1-96.62-14.67C171.72,477.85,116.33,417,116.33,350.13c0-93.59,106.65-169.73,237.74-169.73,55.15,0,108.94,13.85,151.44,39,54.84,32.46,86.29,80.11,86.29,130.71C591.8,443.72,485.15,519.87,354.07,519.87Z"/><path class="cls-2" d="M354.07,189.16a313.4,313.4,0,0,1,79.74,10.11A263.55,263.55,0,0,1,501.05,227c52.1,30.85,82,75.74,82,123.17,0,41.91-23.07,81.69-64.95,112-21.07,15.25-45.7,27.26-73.21,35.69a317.12,317.12,0,0,1-184.77-1c-82-26.17-135-83.76-135-146.72,0-41.91,23.07-81.69,65-112,21.07-15.26,45.7-27.27,73.2-35.69a309.78,309.78,0,0,1,90.82-13.26m0-17.52c-136.14,0-246.5,79.91-246.5,178.49,0,73,60.53,135.76,147.21,163.41a327.08,327.08,0,0,0,99.29,15.09c136.13,0,246.49-79.92,246.49-178.5,0-55.75-35.3-105.52-90.59-138.25-42.48-25.15-96.75-40.24-155.9-40.24Z"/><path class="cls-3" d="M48.57,333.13c0-119.57,133.86-216.49,299-216.49"/><path class="cls-4" d="M7.57,253.13c28.59-89,132.58-172,237.58-178"/><path class="cls-3" d="M663.54,386.83c-21.4,119.3-133.86,216.49-299,216.49"/><path class="cls-4" d="M704.53,466.83c-40.39,93.3-121.39,168.3-229.07,178.3"/><g class="cls-5"><path class="cls-1" d="M124.57,349.88c0-89.05,102.53-161.24,229-161.24,54.95,0,105.37,13.63,144.84,36.35,25,33.19,37.45,70.95,33.13,109.57C520.42,434,402.06,503.6,261.33,497.5,180.8,472.52,124.57,415.83,124.57,349.88Z"/><path class="cls-6" d="M531.54,334.56c4.32-38.62-8.15-76.38-33.13-109.57,51.36,29.57,84.15,74.53,84.15,124.89,0,89.06-102.52,161.25-229,161.25a311.87,311.87,0,0,1-92.24-13.63C402.06,503.6,520.42,434,531.54,334.56Z"/></g><ellipse class="cls-7" cx="352.07" cy="341.63" rx="216.5" ry="146"/><path class="cls-8" d="M389.7,366.31a61.11,61.11,0,0,1-82.13-26.91"/><path class="cls-9" d="M431,229.59a283.19,283.19,0,0,0-60.14-11.08q-11.4-.87-23.16-.88"/><path class="cls-9" d="M314.53,219.73a270.47,270.47,0,0,0-26.94,4.66"/><path class="cls-9" d="M551.56,355.13c0-41.92-27.81-79.45-71.67-104.67"/><path class="cls-10" d="M344,388.31l-3,7.16-6.59-2.74a34.43,34.43,0,0,0-45,18.56h0a34.43,34.43,0,0,0,18.56,45l70.17,29.21.23-.57,26.23-63,3-7.16a34.44,34.44,0,0,0-18.55-45h0A34.44,34.44,0,0,0,344,388.31Z"/><path class="cls-11" d="M357,395.79a19.5,19.5,0,0,1,36.9,12.63"/><path class="cls-12" d="M496.66,93.08l-1.61,3.86-3.56-1.47a18.56,18.56,0,0,0-24.29,10h0a18.58,18.58,0,0,0,10,24.29l37.86,15.76.13-.31,14.15-34,1.61-3.86a18.58,18.58,0,0,0-10-24.29h0A18.58,18.58,0,0,0,496.66,93.08Z"/><path class="cls-13" d="M503.68,97.12a10.52,10.52,0,0,1,19.91,6.81"/><path class="cls-14" d="M582,10.79l-2.56,1-.9-2.35a12.15,12.15,0,0,0-15.72-7h0a12.16,12.16,0,0,0-7,15.71l9.65,25,.2-.08,22.49-8.66,2.55-1a12.15,12.15,0,0,0,7-15.71h0A12.17,12.17,0,0,0,582,10.79Z"/><path class="cls-15" d="M583.25,15.94A6.89,6.89,0,0,1,589,28.44"/><ellipse class="cls-2" cx="471.96" cy="455.1" rx="36.98" ry="18.28" transform="translate(-130.87 197.31) rotate(-20.8)"/><path class="cls-16" d="M123.2,385.83a17.63,17.63,0,0,0,1.28,3.9C154.73,454.68,194.61,493,243,503.75c70.49,15.58,130.89-34.41,133.42-36.54a17.5,17.5,0,0,0-22.51-26.81h0c-.49.42-50.1,41.1-103.58,29.12-37.12-8.3-68.8-40.12-94.15-94.56"/><ellipse class="cls-2" cx="532.61" cy="419.72" rx="18.22" ry="9.01" transform="translate(-121.7 597.83) rotate(-53.47)"/><ellipse class="cls-2" cx="504.49" cy="417.15" rx="11.68" ry="5.78" transform="translate(-146.97 352.98) rotate(-33.96)"/><path class="cls-16" d="M579.24,402.43a17.21,17.21,0,0,1-1.33,3.89C546.88,470.9,506.54,508.78,458,518.9c-70.67,14.73-130.46-36-133-38.15a17.5,17.5,0,0,1,22.83-26.53h0c.49.42,49.61,41.7,103.23,30.37,37.22-7.86,69.28-39.3,95.28-93.43"/><path class="cls-8" d="M444.35,358.06a61.12,61.12,0,0,1,108.87-55.58"/><path class="cls-8" d="M155.31,309.06a61.11,61.11,0,0,1,116.15,38.06"/></g></g></svg>