<svg xmlns="http://www.w3.org/2000/svg" xmlns:xlink="http://www.w3.org/1999/xlink" viewBox="0 0 520.28 474.05"><defs><style>.cls-1{fill:#ffc2d1;}.cls-17,.cls-18,.cls-2{fill:#fbcd63;}.cls-3{fill:#ff8c64;}.cls-4{opacity:0.65;}.cls-5{fill:url(#linear-gradient);}.cls-6{fill:url(#linear-gradient-2);}.cls-7,.cls-8{fill:none;stroke:#fff5e6;}.cls-12,.cls-17,.cls-18,.cls-7,.cls-8,.cls-9{stroke-linecap:round;}.cls-12,.cls-17,.cls-7,.cls-8,.cls-9{stroke-miterlimit:10;}.cls-7{stroke-width:16.62px;}.cls-8{stroke-width:13.51px;opacity:0.5;}.cls-11,.cls-12,.cls-9{fill:#fff;}.cls-12,.cls-17,.cls-18,.cls-9{stroke:#ff8c64;}.cls-9{stroke-width:13px;}.cls-10,.cls-13{opacity:0.48;}.cls-10{fill:url(#linear-gradient-3);}.cls-12{stroke-width:10px;}.cls-13{fill:url(#linear-gradient-4);}.cls-14{mask:url(#mask);}.cls-15{fill:#ff9fba;}.cls-16{mask:url(#mask-2);}.cls-17{stroke-width:16px;}.cls-18{stroke-linejoin:round;stroke-width:15px;}</style><linearGradient id="linear-gradient" x1="1645.15" y1="139.21" x2="1915.26" y2="409.32" gradientTransform="matrix(-1, 0, 0, 1, 2124.18, 0)" gradientUnits="userSpaceOnUse"><stop offset="0" stop-color="#fbcd63" stop-opacity="0"/><stop offset="0.12" stop-color="#fcbe63" stop-opacity="0.23"/><stop offset="0.25" stop-color="#fdb163" stop-opacity="0.43"/><stop offset="0.37" stop-color="#fda664" stop-opacity="0.61"/><stop offset="0.5" stop-color="#fe9c64" stop-opacity="0.75"/><stop offset="0.62" stop-color="#fe9564" stop-opacity="0.86"/><stop offset="0.75" stop-color="#ff9064" stop-opacity="0.94"/><stop offset="0.87" stop-color="#ff8d64" stop-opacity="0.98"/><stop offset="1" stop-color="#ff8c64"/></linearGradient><linearGradient id="linear-gradient-2" x1="1783.68" y1="347.98" x2="1956.62" y2="48.44" gradientTransform="matrix(-1, 0, 0, 1, 2124.18, 0)" gradientUnits="userSpaceOnUse"><stop offset="0" stop-color="#fbcd63" stop-opacity="0"/><stop offset="0.18" stop-color="#fbcd64" stop-opacity="0.01"/><stop offset="0.3" stop-color="#fbce67" stop-opacity="0.05"/><stop offset="0.38" stop-color="#fbcf69" stop-opacity="0.07"/><stop offset="0.47" stop-color="#fbd06e" stop-opacity="0.12"/><stop offset="0.56" stop-color="#fcd276" stop-opacity="0.21"/><stop offset="0.66" stop-color="#fcd682" stop-opacity="0.34"/><stop offset="0.76" stop-color="#fdda91" stop-opacity="0.5"/><stop offset="0.87" stop-color="#fee0a4" stop-opacity="0.7"/><stop offset="0.97" stop-color="#ffe6b9" stop-opacity="0.93"/><stop offset="1" stop-color="#ffe8c0"/></linearGradient><linearGradient id="linear-gradient-3" x1="1304.2" y1="-348.09" x2="1408.19" y2="-348.09" gradientTransform="translate(-1096.85 -326.12) rotate(31.15)" gradientUnits="userSpaceOnUse"><stop offset="0" stop-color="#fbcd63" stop-opacity="0"/><stop offset="0.12" stop-color="#fcd379" stop-opacity="0.23"/><stop offset="0.25" stop-color="#fdd98b" stop-opacity="0.43"/><stop offset="0.37" stop-color="#fddd9b" stop-opacity="0.61"/><stop offset="0.5" stop-color="#fee1a9" stop-opacity="0.75"/><stop offset="0.62" stop-color="#fee4b3" stop-opacity="0.86"/><stop offset="0.75" stop-color="#ffe6ba" stop-opacity="0.94"/><stop offset="0.87" stop-color="#ffe8bf" stop-opacity="0.98"/><stop offset="1" stop-color="#ffe8c0"/></linearGradient><linearGradient id="linear-gradient-4" x1="-712.36" y1="-11.47" x2="-791.73" y2="13.71" gradientTransform="matrix(-0.97, 0.25, 0.25, 0.97, -275.9, 298.68)" xlink:href="#linear-gradient-3"/><mask id="mask" x="186.82" y="178.03" width="222.08" height="178.94" maskUnits="userSpaceOnUse"><path class="cls-1" d="M407.13,222.05c-7.47,35.69-54.83,68.93-90.52,61.46a66,66,0,0,1-51.09-78.14c13.42-64.13,87.61,4.68,87.61,4.68s22.66-17.51,39.09-19.75C404.13,188.68,412.77,195.1,407.13,222.05Z"/></mask><mask id="mask-2" x="264.11" y="168.05" width="144.79" height="116.52" maskUnits="userSpaceOnUse"><path class="cls-1" d="M407.13,222.05c-7.47,35.69-54.83,68.93-90.52,61.46a66,66,0,0,1-51.09-78.14c13.42-64.13,87.61,4.68,87.61,4.68s22.66-17.51,39.09-19.75C404.13,188.68,412.77,195.1,407.13,222.05Z"/></mask></defs><title>R-happy</title><g id="Layer_2" data-name="Layer 2"><g id="Layer_1-2" data-name="Layer 1"><path class="cls-2" d="M256.11,383.4a329.59,329.59,0,0,1-100.39-15.25C66.65,339.74,9.1,276.5,9.1,207c0-97.24,110.81-176.36,247-176.36,57.31,0,113.19,14.4,157.35,40.55,57,33.73,89.66,83.23,89.66,135.81C503.12,304.28,392.31,383.4,256.11,383.4Z"/><path class="cls-3" d="M256.11,39.79A325.61,325.61,0,0,1,339,50.29a273.79,273.79,0,0,1,69.86,28.77C463,111.11,494,157.76,494,207c0,43.54-24,84.88-67.48,116.39-21.9,15.86-47.49,28.33-76.06,37.09a321.94,321.94,0,0,1-94.36,13.77,320.64,320.64,0,0,1-97.62-14.81c-41.87-13.36-77.28-34.87-102.38-62.2-24.8-27-37.9-58.2-37.9-90.24,0-43.54,24-84.88,67.48-116.39,21.89-15.86,47.49-28.33,76.06-37.09a321.94,321.94,0,0,1,94.36-13.77m0-18.21C114.66,21.58,0,104.61,0,207c0,75.85,62.89,141,153,169.79A340.14,340.14,0,0,0,256.11,392.5c141.45,0,256.11-83,256.11-185.46,0-57.92-36.68-109.64-94.12-143.65C374,37.26,317.57,21.58,256.11,21.58Z"/><g class="cls-4"><path class="cls-2" d="M17.66,206.78c0-92.53,106.53-167.54,237.93-167.54,57.1,0,109.49,14.17,150.49,37.78,26,34.49,38.92,73.72,34.43,113.84C429,294.15,306,366.49,159.76,360.16,76.08,334.2,17.66,275.3,17.66,206.78Z"/><path class="cls-5" d="M440.51,190.86C445,150.74,432,111.51,406.08,77c53.37,30.72,87.44,77.44,87.44,129.76,0,92.53-106.53,167.54-237.93,167.54a324.36,324.36,0,0,1-95.83-14.16C306,366.49,429,294.15,440.51,190.86Z"/></g><ellipse class="cls-6" cx="254.03" cy="198.21" rx="224.94" ry="151.69"/><path class="cls-7" d="M336,81.8a292.82,292.82,0,0,0-62.49-11.51q-11.83-.92-24.06-.92"/><path class="cls-7" d="M215,71.55a281,281,0,0,0-28,4.85"/><path class="cls-7" d="M461.31,212.23c0-43.55-28.9-82.55-74.47-108.75"/><path class="cls-8" d="M41.82,215.28c1.32,43.53,31.39,81.64,77.73,106.45"/><ellipse class="cls-3" cx="378.6" cy="316.1" rx="38.42" ry="19" transform="translate(-87.59 155.08) rotate(-20.8)"/><ellipse class="cls-3" cx="441.61" cy="279.35" rx="18.93" ry="9.36" transform="translate(-45.73 467.9) rotate(-53.47)"/><ellipse class="cls-3" cx="412.4" cy="276.67" rx="12.14" ry="6" transform="translate(-84.21 277.57) rotate(-33.96)"/><path class="cls-1" d="M327.17,292.05a59.73,59.73,0,0,1-12.09-1.21,73.5,73.5,0,0,1-56.88-87c5.75-27.51,21.78-33.29,34.2-33.29,23,0,50.36,20.87,61.15,29.93,8.95-6.24,27.56-17.89,41.93-17.89,8.34,0,13.14,3.76,15.7,6.91,5.57,6.85,6.64,18,3.28,34.09-3.57,17-15.43,34.41-32.55,47.72-17,13.18-36.9,20.74-54.73,20.74Z"/><path class="cls-3" d="M292.4,178c26.21,0,60.73,32,60.73,32s25.85-20,42.35-20c10.15,0,16.76,7.56,11.65,32-6.75,32.26-46.1,62.52-79.95,62.52a51.36,51.36,0,0,1-10.57-1.06,66,66,0,0,1-51.09-78.14C269.79,185,280.19,178,292.4,178m0-15a38.48,38.48,0,0,0-26.55,10c-7.27,6.7-12.31,16.54-15,29.26a81.08,81.08,0,0,0,62.68,95.86,66.89,66.89,0,0,0,13.63,1.38c41.35,0,86.45-35.47,94.6-74.42,3.91-18.69,2.39-31.5-4.79-40.34-5.07-6.24-12.71-9.67-21.51-9.67-14.14,0-30.82,9.09-41.49,16-13.45-10.72-38.75-28.07-61.59-28.07Z"/><path class="cls-9" d="M197.16,42c-36.31,20.5-52.11,70.74-1.62,101.27s87.88-.4,109.45-36.09S322.27,23.35,290.13,10C259.31-2.78,232.64,22,197.16,42Z"/><path class="cls-10" d="M206.32,54.58c-29.43,16.62-41.89,51.75-1.25,77,37.62,23.33,67-.07,84.44-29s18.28-68.22-7.77-79C256.76,13.13,235.08,38.34,206.32,54.58Z"/><ellipse class="cls-3" cx="266.66" cy="63.01" rx="43" ry="38" transform="translate(51.56 232.75) rotate(-51.57)"/><circle class="cls-11" cx="273.92" cy="51.3" r="23.71"/><circle class="cls-11" cx="243.93" cy="77.34" r="8.86"/><path class="cls-12" d="M491.39,100.2c20.21,26.43,19.82,69.86-21.42,78.74S410.1,153,403.32,119.16s6.86-69.86,31.76-70.8C459,47.45,471.64,74.38,491.39,100.2Z"/><path class="cls-13" d="M481.79,105.7c17.14,20.62,19,51.4-14,60.71-30.5,8.62-46.27-17.3-52.79-44.5s.5-58.26,20.59-60C454.9,60.17,465,85.55,481.79,105.7Z"/><ellipse class="cls-3" cx="440.46" cy="96.33" rx="27.17" ry="35.62" transform="translate(-10.22 83.35) rotate(-10.69)"/><ellipse class="cls-11" cx="439.68" cy="87.97" rx="20.01" ry="23.2" transform="translate(-8.32 69.13) rotate(-8.91)"/><g class="cls-14"><ellipse class="cls-15" cx="272.63" cy="276.55" rx="65" ry="98" transform="translate(-114.58 306.16) rotate(-49.78)"/></g><ellipse class="cls-11" cx="458.3" cy="111.97" rx="4.76" ry="5.52" transform="translate(-11.81 72.31) rotate(-8.91)"/><g class="cls-16"><path class="cls-11" d="M394.13,193.05s-24,75-127,15l5-40,122,7Z"/></g><path class="cls-17" d="M185.34,325.75c-4.68,15.19-12.81,60,5.52,84.84,10,13.58,27.77,20.46,52.77,20.46,18,0,31.32-5.82,40.63-17.79,29.22-37.61,15.26-125.64,7.42-156.38a17.5,17.5,0,1,1,33.91-8.65,426.7,426.7,0,0,1,10.55,69.13c3.58,52.57-4.58,92.06-24.24,117.37-16.15,20.78-39.12,31.32-68.27,31.32-36.79,0-64-11.71-81-34.8C130.07,387,151,318.24,151.93,315.33"/><path class="cls-18" d="M464.53,310.72A250,250,0,0,1,491,340.32c19.14,25.42,25.69,47.16,19.46,64.64-6.66,18.67-25.76,29.12-56.78,31.06-2.3.14-4.55.21-6.73.21-30.13,0-48.28-13.2-58.4-24.74-16.51-18.83-25-47.33-25.25-84.71a269.56,269.56,0,0,1,4.12-48.59,17.5,17.5,0,0,1,34.35,6.72c-3.91,20.21-9.17,78.17,13.12,103.54,8.37,9.52,20.34,13.65,36.61,12.64,18.75-1.18,25.2-5.68,26-7.89,1.14-3.19-.63-13.47-14.45-31.83a213.14,213.14,0,0,0-22.35-25"/></g></g></svg>