<svg xmlns="http://www.w3.org/2000/svg" xmlns:xlink="http://www.w3.org/1999/xlink" viewBox="0 0 783.18 485.34"><defs><style>.cls-1,.cls-2{fill:#fbcd63;}.cls-1,.cls-11,.cls-15{stroke:#ff8c64;}.cls-1,.cls-10,.cls-11,.cls-15,.cls-7,.cls-8,.cls-9{stroke-linecap:round;}.cls-1,.cls-10,.cls-15,.cls-9{stroke-linejoin:round;}.cls-1,.cls-7{stroke-width:16px;}.cls-3{fill:#ff8c64;}.cls-4{opacity:0.65;}.cls-5{fill:url(#linear-gradient);}.cls-6{fill:url(#linear-gradient-2);}.cls-10,.cls-7,.cls-8,.cls-9{fill:none;}.cls-7,.cls-8{stroke:#fff5e6;}.cls-11,.cls-7,.cls-8{stroke-miterlimit:10;}.cls-11,.cls-8{stroke-width:13px;}.cls-10,.cls-8,.cls-9{opacity:0.5;}.cls-10,.cls-9{stroke:#5a99f6;}.cls-9{stroke-width:10px;}.cls-10{stroke-width:7.21px;}.cls-11,.cls-14{fill:#fff;}.cls-12,.cls-13{opacity:0.48;}.cls-12{fill:url(#linear-gradient-3);}.cls-13{fill:url(#linear-gradient-4);}.cls-15{fill:#ffc2d1;stroke-width:14.96px;}</style><linearGradient id="linear-gradient" x1="10561.89" y1="180.39" x2="10821.86" y2="440.36" gradientTransform="matrix(-1, 0, 0, 1, 11200.79, 0)" gradientUnits="userSpaceOnUse"><stop offset="0" stop-color="#fbcd63" stop-opacity="0"/><stop offset="0.12" stop-color="#fcbe63" stop-opacity="0.23"/><stop offset="0.25" stop-color="#fdb163" stop-opacity="0.43"/><stop offset="0.37" stop-color="#fda664" stop-opacity="0.61"/><stop offset="0.5" stop-color="#fe9c64" stop-opacity="0.75"/><stop offset="0.62" stop-color="#fe9564" stop-opacity="0.86"/><stop offset="0.75" stop-color="#ff9064" stop-opacity="0.94"/><stop offset="0.87" stop-color="#ff8d64" stop-opacity="0.98"/><stop offset="1" stop-color="#ff8c64"/></linearGradient><linearGradient id="linear-gradient-2" x1="10695.22" y1="381.32" x2="10861.67" y2="93.02" gradientTransform="matrix(-1, 0, 0, 1, 11200.79, 0)" gradientUnits="userSpaceOnUse"><stop offset="0" stop-color="#fbcd63" stop-opacity="0"/><stop offset="0.18" stop-color="#fbcd64" stop-opacity="0.01"/><stop offset="0.3" stop-color="#fbce67" stop-opacity="0.05"/><stop offset="0.38" stop-color="#fbcf69" stop-opacity="0.07"/><stop offset="0.47" stop-color="#fbd06e" stop-opacity="0.12"/><stop offset="0.56" stop-color="#fcd276" stop-opacity="0.21"/><stop offset="0.66" stop-color="#fcd682" stop-opacity="0.34"/><stop offset="0.76" stop-color="#fdda91" stop-opacity="0.5"/><stop offset="0.87" stop-color="#fee0a4" stop-opacity="0.7"/><stop offset="0.97" stop-color="#ffe6b9" stop-opacity="0.93"/><stop offset="1" stop-color="#ffe8c0"/></linearGradient><linearGradient id="linear-gradient-3" x1="1145.79" y1="-39.26" x2="1249.78" y2="-39.26" gradientTransform="translate(-915.01 145.4) rotate(5.14)" gradientUnits="userSpaceOnUse"><stop offset="0" stop-color="#fbcd63" stop-opacity="0"/><stop offset="0.12" stop-color="#fcd379" stop-opacity="0.23"/><stop offset="0.25" stop-color="#fdd98b" stop-opacity="0.43"/><stop offset="0.37" stop-color="#fddd9b" stop-opacity="0.61"/><stop offset="0.5" stop-color="#fee1a9" stop-opacity="0.75"/><stop offset="0.62" stop-color="#fee4b3" stop-opacity="0.86"/><stop offset="0.75" stop-color="#ffe6ba" stop-opacity="0.94"/><stop offset="0.87" stop-color="#ffe8bf" stop-opacity="0.98"/><stop offset="1" stop-color="#ffe8c0"/></linearGradient><linearGradient id="linear-gradient-4" x1="8359.57" y1="-1148.01" x2="8250.52" y2="-1113.4" gradientTransform="matrix(-0.98, 0.22, 0.22, 0.98, 8923.56, -471.77)" xlink:href="#linear-gradient-3"/></defs><title>wave</title><g id="Layer_2" data-name="Layer 2"><g id="Layer_1-2" data-name="Layer 1"><path class="cls-1" d="M626.83,234.47a17.94,17.94,0,0,1,4.07.55c69.4,17.79,114.44,50,133.86,95.57C793,397,755,465.57,753.36,468.46a17.5,17.5,0,0,1-30.48-17.2h0c.31-.56,31.18-56.81,9.59-107.18-15-35-52.09-60.24-110.26-75.15"/><path class="cls-1" d="M209.61,250.87a17.48,17.48,0,0,1-4.08-.55c-69.4-17.79-114.44-49.94-133.86-95.57-28.28-66.42,9.77-135,11.4-137.87a17.5,17.5,0,0,1,30.48,17.2h0c-.31.56-31.18,56.81-9.58,107.18,15,35,52.08,60.24,110.25,75.16"/><path class="cls-2" d="M424.35,415.41a317.46,317.46,0,0,1-96.62-14.67C242,373.39,186.61,312.52,186.61,245.67c0-93.59,106.65-169.73,237.74-169.73,55.15,0,108.94,13.85,151.44,39,54.84,32.46,86.29,80.11,86.29,130.71C662.08,339.26,555.43,415.41,424.35,415.41Z"/><path class="cls-3" d="M424.35,84.7a313.4,313.4,0,0,1,79.74,10.11,263.55,263.55,0,0,1,67.24,27.69c52.1,30.85,82,75.74,82,123.17,0,41.91-23.07,81.69-65,112C567.29,373,542.66,385,515.16,393.39a310,310,0,0,1-90.81,13.25,308.66,308.66,0,0,1-94-14.25c-82-26.17-135-83.76-135-146.72,0-41.91,23.07-81.69,64.95-112C281.4,118.39,306,106.38,333.53,98A309.78,309.78,0,0,1,424.35,84.7m0-17.53c-136.14,0-246.5,79.92-246.5,178.5,0,73,60.53,135.75,147.21,163.41a327.39,327.39,0,0,0,99.29,15.09c136.13,0,246.49-79.92,246.49-178.5,0-55.75-35.3-105.52-90.59-138.25-42.48-25.15-96.75-40.25-155.9-40.25Z"/><g class="cls-4"><path class="cls-2" d="M194.85,245.42c0-89,102.52-161.25,229-161.25,54.95,0,105.37,13.64,144.83,36.36,25,33.19,37.46,70.95,33.14,109.57C590.7,329.51,472.34,399.14,331.61,393,251.08,368.06,194.85,311.37,194.85,245.42Z"/><path class="cls-5" d="M601.82,230.1c4.32-38.62-8.15-76.38-33.14-109.57,51.37,29.57,84.16,74.53,84.16,124.89,0,89.05-102.52,161.25-229,161.25A311.87,311.87,0,0,1,331.61,393C472.34,399.14,590.7,329.51,601.82,230.1Z"/></g><ellipse class="cls-6" cx="422.35" cy="237.17" rx="216.5" ry="146"/><path class="cls-7" d="M501.25,125.13a283.31,283.31,0,0,0-60.14-11.08q-11.4-.87-23.16-.88"/><path class="cls-7" d="M384.81,115.27a270.47,270.47,0,0,0-26.94,4.66"/><path class="cls-7" d="M621.84,250.67c0-41.92-27.81-79.45-71.67-104.67"/><path class="cls-8" d="M218.1,253.6c1.27,41.9,30.21,78.58,74.82,102.46"/><ellipse class="cls-3" cx="542.23" cy="350.64" rx="36.98" ry="18.28" transform="translate(-89.19 215.46) rotate(-20.8)"/><ellipse class="cls-3" cx="602.88" cy="315.26" rx="18.22" ry="9.01" transform="translate(-9.32 612.02) rotate(-53.47)"/><ellipse class="cls-3" cx="574.77" cy="312.69" rx="11.68" ry="5.78" transform="translate(-76.63 374.42) rotate(-33.96)"/><path class="cls-9" d="M56.73,12.32s-34,32.09-26.6,84"/><path class="cls-10" d="M23.55,15.65S-1,38.8,4.37,76.21"/><path class="cls-10" d="M195.55,54.65S171,77.8,176.36,115.21"/><path class="cls-9" d="M171.73,35.32s-34,32.09-26.6,84"/><path class="cls-11" d="M223.93,202.22c-23.64,34.35-15.81,86.43,42.95,91.72s78.8-38.89,82.54-80.42-21.24-83-56-80.84C260.13,134.7,247,168.66,223.93,202.22Z"/><path class="cls-12" d="M237.67,209.48c-19.16,27.84-15,64.88,32.62,69.71,44,4.46,60.14-29.43,63.17-63.09S320,146.77,291.82,148.48C264.82,150.11,256.39,182.28,237.67,209.48Z"/><path class="cls-11" d="M624.22,198.06c26.45,32.24,23,84.79-35.08,95s-81.8-32.12-89-73.19,14.2-84.44,49-85.27C582.47,133.82,598.37,166.56,624.22,198.06Z"/><path class="cls-13" d="M610.46,204.59C633,229.77,633.56,267,587,277.88c-43.11,10-63.4-21.52-70.7-54.53S520.84,152.87,549,151C576,149.16,588.43,180,610.46,204.59Z"/><ellipse class="cls-3" cx="553.44" cy="192.73" rx="38" ry="43" transform="translate(-26.78 110.38) rotate(-11.12)"/><ellipse class="cls-3" cx="295.59" cy="190.6" rx="43" ry="38" transform="translate(45.88 438.29) rotate(-77.58)"/><circle class="cls-14" cx="290.68" cy="161.54" r="15.5"/><circle class="cls-14" cx="306.45" cy="184.3" r="8.75"/><circle class="cls-14" cx="538.29" cy="165.76" r="15.5"/><circle class="cls-14" cx="554.07" cy="188.52" r="8.75"/><path class="cls-15" d="M473.28,266.3a49.53,49.53,0,1,1-97.84-15.49Z"/></g></g></svg>