<svg xmlns="http://www.w3.org/2000/svg" xmlns:xlink="http://www.w3.org/1999/xlink" viewBox="0 0 574.45 561.01"><defs><style>.cls-1{fill:#ffc2d1;}.cls-18,.cls-2,.cls-3{fill:#fbcd63;}.cls-10,.cls-13,.cls-18,.cls-2{stroke:#ff8c64;}.cls-10,.cls-13,.cls-18,.cls-2,.cls-8,.cls-9{stroke-linecap:round;}.cls-18,.cls-2{stroke-linejoin:round;}.cls-2,.cls-8{stroke-width:16.62px;}.cls-4{fill:#ff8c64;}.cls-5{opacity:0.65;}.cls-6{fill:url(#linear-gradient);}.cls-7{fill:url(#linear-gradient-2);}.cls-8,.cls-9{fill:none;stroke:#fff5e6;}.cls-10,.cls-13,.cls-8,.cls-9{stroke-miterlimit:10;}.cls-9{stroke-width:13.51px;opacity:0.5;}.cls-10,.cls-12,.cls-13{fill:#fff;}.cls-10{stroke-width:13px;}.cls-11,.cls-14{opacity:0.48;}.cls-11{fill:url(#linear-gradient-3);}.cls-13{stroke-width:10px;}.cls-14{fill:url(#linear-gradient-4);}.cls-15{mask:url(#mask);}.cls-16{fill:#ff9fba;}.cls-17{mask:url(#mask-2);}.cls-18{stroke-width:16px;}</style><linearGradient id="linear-gradient" x1="-1796.85" y1="148.21" x2="-1526.74" y2="418.32" gradientTransform="matrix(-1, 0, 0, 1, -1317.82, 0)" gradientUnits="userSpaceOnUse"><stop offset="0" stop-color="#fbcd63" stop-opacity="0"/><stop offset="0.12" stop-color="#fcbe63" stop-opacity="0.23"/><stop offset="0.25" stop-color="#fdb163" stop-opacity="0.43"/><stop offset="0.37" stop-color="#fda664" stop-opacity="0.61"/><stop offset="0.5" stop-color="#fe9c64" stop-opacity="0.75"/><stop offset="0.62" stop-color="#fe9564" stop-opacity="0.86"/><stop offset="0.75" stop-color="#ff9064" stop-opacity="0.94"/><stop offset="0.87" stop-color="#ff8d64" stop-opacity="0.98"/><stop offset="1" stop-color="#ff8c64"/></linearGradient><linearGradient id="linear-gradient-2" x1="-1658.32" y1="356.98" x2="-1485.38" y2="57.44" gradientTransform="matrix(-1, 0, 0, 1, -1317.82, 0)" gradientUnits="userSpaceOnUse"><stop offset="0" stop-color="#fbcd63" stop-opacity="0"/><stop offset="0.18" stop-color="#fbcd64" stop-opacity="0.01"/><stop offset="0.3" stop-color="#fbce67" stop-opacity="0.05"/><stop offset="0.38" stop-color="#fbcf69" stop-opacity="0.07"/><stop offset="0.47" stop-color="#fbd06e" stop-opacity="0.12"/><stop offset="0.56" stop-color="#fcd276" stop-opacity="0.21"/><stop offset="0.66" stop-color="#fcd682" stop-opacity="0.34"/><stop offset="0.76" stop-color="#fdda91" stop-opacity="0.5"/><stop offset="0.87" stop-color="#fee0a4" stop-opacity="0.7"/><stop offset="0.97" stop-color="#ffe6b9" stop-opacity="0.93"/><stop offset="1" stop-color="#ffe8c0"/></linearGradient><linearGradient id="linear-gradient-3" x1="511.35" y1="-910.68" x2="615.35" y2="-910.68" gradientTransform="matrix(-0.86, 0.52, 0.52, 0.86, 1268.32, 565.49)" gradientUnits="userSpaceOnUse"><stop offset="0" stop-color="#fbcd63" stop-opacity="0"/><stop offset="0.12" stop-color="#fcd379" stop-opacity="0.23"/><stop offset="0.25" stop-color="#fdd98b" stop-opacity="0.43"/><stop offset="0.37" stop-color="#fddd9b" stop-opacity="0.61"/><stop offset="0.5" stop-color="#fee1a9" stop-opacity="0.75"/><stop offset="0.62" stop-color="#fee4b3" stop-opacity="0.86"/><stop offset="0.75" stop-color="#ffe6ba" stop-opacity="0.94"/><stop offset="0.87" stop-color="#ffe8bf" stop-opacity="0.98"/><stop offset="1" stop-color="#ffe8c0"/></linearGradient><linearGradient id="linear-gradient-4" x1="-3492.28" y1="256.09" x2="-3571.66" y2="281.28" gradientTransform="translate(3595.51 720.98) rotate(14.19)" xlink:href="#linear-gradient-3"/><mask id="mask" x="112.46" y="189.77" width="322.49" height="251.21" maskUnits="userSpaceOnUse"><path class="cls-1" d="M114.55,258.7c10.29,49.19,88.35,92.34,149.31,79.58s102-63,91.75-112.18c-18.51-88.39-148.77,12.32-148.77,12.32s-37.23-22.89-64.92-24.91C121.84,212,106.77,221.54,114.55,258.7Z"/></mask><mask id="mask-2" x="110.02" y="180.55" width="269.61" height="160.98" maskUnits="userSpaceOnUse"><path class="cls-1" d="M112.09,259.89c10.3,49.19,89,92.21,150.51,79.33S365.68,276,355.38,226.83c-18.5-88.4-150.13,12.6-150.13,12.6s-37.52-22.83-65.46-24.8C119.53,213.2,104.31,222.73,112.09,259.89Z"/></mask></defs><title>L-happy</title><g id="Layer_2" data-name="Layer 2"><g id="Layer_1-2" data-name="Layer 1"><path class="cls-2" d="M133.85,343.53a18.32,18.32,0,0,0-.92,4.17c-7.61,74.05,7.55,129.51,45,164.85,54.59,51.43,135.1,39,138.5,38.44a18.18,18.18,0,0,0-5.81-35.9h0c-.67.11-66.59,10-107.93-29.18-28.69-27.18-40-72.43-33.64-134.5"/><path class="cls-3" d="M256.11,392.4a329.64,329.64,0,0,1-100.39-15.25C66.65,348.74,9.1,285.5,9.1,216c0-97.24,110.81-176.36,247-176.36,57.31,0,113.19,14.4,157.35,40.55,57,33.73,89.66,83.23,89.66,135.81C503.12,313.28,392.31,392.4,256.11,392.4Z"/><path class="cls-4" d="M256.11,48.79A325.61,325.61,0,0,1,339,59.29a273.79,273.79,0,0,1,69.86,28.77C463,120.11,494,166.76,494,216c0,43.54-24,84.88-67.48,116.39-21.89,15.86-47.49,28.33-76.06,37.09a321.94,321.94,0,0,1-94.36,13.77,320.64,320.64,0,0,1-97.62-14.81c-41.87-13.36-77.28-34.87-102.38-62.2-24.8-27-37.9-58.2-37.9-90.24,0-43.54,24-84.88,67.48-116.39,21.89-15.86,47.49-28.33,76.06-37.09a321.94,321.94,0,0,1,94.36-13.77m0-18.21C114.66,30.58,0,113.61,0,216c0,75.85,62.89,141,153,169.79A340.14,340.14,0,0,0,256.11,401.5c141.45,0,256.11-83,256.11-185.46,0-57.92-36.68-109.64-94.12-143.65C374,46.26,317.57,30.58,256.11,30.58Z"/><g class="cls-5"><path class="cls-3" d="M17.66,215.78c0-92.53,106.53-167.54,237.93-167.54,57.1,0,109.49,14.17,150.49,37.78,26,34.49,38.92,73.72,34.43,113.84C429,303.15,306,375.49,159.76,369.16,76.08,343.2,17.66,284.3,17.66,215.78Z"/><path class="cls-6" d="M440.51,199.86C445,159.74,432,120.51,406.08,86c53.37,30.72,87.44,77.44,87.44,129.76,0,92.53-106.53,167.54-237.93,167.54a324.36,324.36,0,0,1-95.83-14.16C306,375.49,429,303.15,440.51,199.86Z"/></g><ellipse class="cls-7" cx="254.03" cy="207.21" rx="224.94" ry="151.69"/><path class="cls-8" d="M336,90.8a292.82,292.82,0,0,0-62.49-11.51q-11.83-.92-24-.92"/><path class="cls-8" d="M215,80.55a281,281,0,0,0-28,4.85"/><path class="cls-8" d="M461.31,221.23c0-43.55-28.9-82.55-74.47-108.75"/><path class="cls-9" d="M41.82,224.28c1.32,43.53,31.39,81.64,77.73,106.45"/><ellipse class="cls-4" cx="378.6" cy="325.1" rx="38.42" ry="19" transform="translate(-90.79 155.67) rotate(-20.8)"/><ellipse class="cls-4" cx="441.61" cy="288.35" rx="18.93" ry="9.36" transform="translate(-52.96 471.54) rotate(-53.47)"/><ellipse class="cls-4" cx="412.4" cy="285.67" rx="12.14" ry="6" transform="translate(-89.24 279.11) rotate(-33.96)"/><path class="cls-10" d="M361.78,42c36.31,20.5,52.11,70.74,1.62,101.27s-87.88-.4-109.45-36.09S236.67,23.35,268.81,10C299.64-2.78,326.3,22,361.78,42Z"/><path class="cls-11" d="M352.62,54.58c29.43,16.62,41.89,51.75,1.25,77-37.62,23.33-67-.07-84.44-29s-18.28-68.22,7.77-79C302.19,13.13,323.86,38.34,352.62,54.58Z"/><ellipse class="cls-4" cx="306.28" cy="88.01" rx="38" ry="43" transform="translate(-11.28 114.65) rotate(-20.83)"/><ellipse class="cls-12" cx="307.62" cy="70.31" rx="18.29" ry="23.43" transform="translate(147.94 342.48) rotate(-72.47)"/><path class="cls-13" d="M67.55,100.2C47.34,126.63,47.74,170.06,89,178.94s59.87-25.91,66.65-59.78-6.87-69.86-31.76-70.8C100,47.45,87.31,74.38,67.55,100.2Z"/><path class="cls-14" d="M77.16,105.7c-17.15,20.62-19,51.4,14,60.71,30.5,8.62,46.28-17.3,52.79-44.5s-.5-58.26-20.59-60C104,60.17,93.91,85.55,77.16,105.7Z"/><ellipse class="cls-4" cx="119.3" cy="116.85" rx="34.09" ry="26" transform="translate(-17.64 212.41) rotate(-79.31)"/><ellipse class="cls-12" cx="119.01" cy="103.24" rx="16.37" ry="13.59" transform="translate(-33.62 64.15) rotate(-26.58)"/><path class="cls-1" d="M240.4,348.85c-28.6,0-59.85-9.47-85.74-26-26.69-17-44.72-39.77-49.46-62.43-4.25-20.31-2.54-34.82,5.22-44.39,6-7.33,15-11.05,26.74-11.05,24.37,0,56.23,16.53,68.36,23.36,15.71-11.39,68.18-47.11,108.62-47.11,18.49,0,42.09,7.45,49.53,42.95,11.22,53.64-33.05,108.45-98.7,122.19A120.43,120.43,0,0,1,240.4,348.85Z"/><path class="cls-4" d="M314.14,189.62c19.62,0,35.7,9.37,41.34,36.3,10.29,49.19-31,99.46-92.22,112.28a111.84,111.84,0,0,1-22.86,2.28c-56.35,0-118-38.52-127-81.75-7.29-34.82,5.54-45.36,23.77-45.36,28.06,0,68.92,25,68.92,25s63.28-48.76,108.06-48.75m0-16.74c-21.51,0-48.12,8.94-79.09,26.57-12.44,7.07-23,14.12-30,19-15.09-8.14-44.06-21.86-67.83-21.86-18,0-28,7.7-33.23,14.15-9.46,11.64-11.72,28.45-6.92,51.38,2.75,13.15,9.2,26,19.17,38.18a142.75,142.75,0,0,0,34,29.59c27.2,17.34,60.09,27.29,90.24,27.29a128.8,128.8,0,0,0,26.29-2.64c33.33-7,62.6-24.12,82.43-48.26a109,109,0,0,0,21-39.31,92,92,0,0,0,1.75-44.52c-3.49-16.64-10.68-29.4-21.39-37.92-9.75-7.75-22-11.68-36.33-11.69h0Z"/><path class="cls-1" d="M240.4,348.85c-28.6,0-59.85-9.47-85.74-26-26.69-17-44.72-39.77-49.46-62.43-4.25-20.31-2.54-34.82,5.22-44.39,6-7.33,15-11.05,26.74-11.05,24.37,0,56.23,16.53,68.36,23.36,15.71-11.39,68.18-47.11,108.62-47.11,18.49,0,42.09,7.45,49.53,42.95,11.22,53.64-33.05,108.45-98.7,122.19A120.43,120.43,0,0,1,240.4,348.85Z"/><path class="cls-4" d="M314.14,189.62c19.62,0,35.7,9.37,41.34,36.3,10.29,49.19-31,99.46-92.22,112.28a111.84,111.84,0,0,1-22.86,2.28c-56.35,0-118-38.52-127-81.75-7.29-34.82,5.54-45.36,23.77-45.36,28.06,0,68.92,25,68.92,25s63.28-48.76,108.06-48.75m0-16.74c-21.51,0-48.12,8.94-79.09,26.57-12.44,7.07-23,14.12-30,19-15.09-8.14-44.06-21.86-67.83-21.86-18,0-28,7.7-33.23,14.15-9.46,11.64-11.72,28.45-6.92,51.38,2.75,13.15,9.2,26,19.17,38.18a142.75,142.75,0,0,0,34,29.59c27.2,17.34,60.09,27.29,90.24,27.29a128.8,128.8,0,0,0,26.29-2.64c33.33-7,62.6-24.12,82.43-48.26a109,109,0,0,0,21-39.31,92,92,0,0,0,1.75-44.52c-3.49-16.64-10.68-29.4-21.39-37.92-9.75-7.75-22-11.68-36.33-11.69h0Z"/><g class="cls-15"><ellipse class="cls-16" cx="316.66" cy="330.12" rx="135.09" ry="89.6" transform="translate(-138.29 282.51) rotate(-40.22)"/></g><g class="cls-17"><path class="cls-12" d="M148.63,236s40,94.54,231-46.46l-68-9-170,20.65Z"/></g><path class="cls-18" d="M386.4,262a16.81,16.81,0,0,0-1.81,4c-22.42,73.39-18,125,7.66,176.63,51.84,104.3,149.13,83.23,153.67,81.76,10.62-3.45,20.53-13,20.53-23.59,0-13-8.64-19-20-14.63h0c-6.78-.06-85.92,12.41-122.1-69.8-17.81-40.48-19.8-75-1-136.51"/></g></g></svg>